<svg width="16" height="16" viewBox="0 0 16 16" fill="none" xmlns="http://www.w3.org/2000/svg">
<path d="M11.2037 14.3333C10.7047 14.3333 10.281 14.1588 9.93266 13.8098C9.58444 13.4608 9.41033 13.037 9.41033 12.5385C9.41033 12.4718 9.43339 12.3098 9.4795 12.0525L4.7385 9.26146C4.57783 9.42813 4.38694 9.55868 4.16583 9.65313C3.94472 9.74757 3.70783 9.79479 3.45516 9.79479C2.95839 9.79479 2.53611 9.61957 2.18833 9.26913C1.84055 8.91868 1.66666 8.49563 1.66666 7.99996C1.66666 7.50429 1.84055 7.08124 2.18833 6.73079C2.53611 6.38035 2.95839 6.20513 3.45516 6.20513C3.70783 6.20513 3.94472 6.25235 4.16583 6.34679C4.38694 6.44124 4.57783 6.57179 4.7385 6.73846L9.4795 3.95379C9.45305 3.87179 9.43489 3.79146 9.425 3.71279C9.41522 3.63413 9.41033 3.55035 9.41033 3.46146C9.41033 2.9629 9.58494 2.53913 9.93416 2.19013C10.2835 1.84113 10.7077 1.66663 11.2067 1.66663C11.7057 1.66663 12.1293 1.84129 12.4775 2.19063C12.8258 2.53985 13 2.96396 13 3.46296C13 3.96196 12.8255 4.38563 12.4765 4.73396C12.1275 5.08218 11.7037 5.25629 11.2052 5.25629C10.9513 5.25629 10.7152 5.20801 10.4968 5.11146C10.2784 5.0149 10.0888 4.88329 9.92816 4.71663L5.18716 7.50763C5.21361 7.58974 5.23178 7.67007 5.24166 7.74863C5.25144 7.82729 5.25633 7.91107 5.25633 7.99996C5.25633 8.08885 5.25144 8.17263 5.24166 8.25129C5.23178 8.32985 5.21361 8.41018 5.18716 8.49229L9.92816 11.2833C10.0888 11.1166 10.2784 10.985 10.4968 10.8885C10.7152 10.7919 10.9513 10.7436 11.2052 10.7436C11.7037 10.7436 12.1275 10.9182 12.4765 11.2675C12.8255 11.6168 13 12.041 13 12.54C13 13.039 12.8253 13.4626 12.476 13.8108C12.1268 14.1591 11.7027 14.3333 11.2037 14.3333ZM11.2052 13.3333C11.4304 13.3333 11.6192 13.2571 11.7715 13.1048C11.9238 12.9525 12 12.7637 12 12.5385C12 12.3132 11.9238 12.1245 11.7715 11.9721C11.6192 11.8197 11.4304 11.7435 11.2052 11.7435C10.9799 11.7435 10.7912 11.8197 10.6388 11.9721C10.4864 12.1245 10.4102 12.3132 10.4102 12.5385C10.4102 12.7637 10.4864 12.9525 10.6388 13.1048C10.7912 13.2571 10.9799 13.3333 11.2052 13.3333ZM3.45516 8.79479C3.68216 8.79479 3.87244 8.71863 4.026 8.56629C4.17966 8.41396 4.2565 8.22518 4.2565 7.99996C4.2565 7.77474 4.17966 7.58596 4.026 7.43363C3.87244 7.28129 3.68216 7.20513 3.45516 7.20513C3.23172 7.20513 3.04444 7.28129 2.89333 7.43363C2.74222 7.58596 2.66666 7.77474 2.66666 7.99996C2.66666 8.22518 2.74222 8.41396 2.89333 8.56629C3.04444 8.71863 3.23172 8.79479 3.45516 8.79479ZM11.2052 4.25646C11.4304 4.25646 11.6192 4.18024 11.7715 4.02779C11.9238 3.87546 12 3.68668 12 3.46146C12 3.23624 11.9238 3.04746 11.7715 2.89513C11.6192 2.74279 11.4304 2.66663 11.2052 2.66663C10.9799 2.66663 10.7912 2.74279 10.6388 2.89513C10.4864 3.04746 10.4102 3.23624 10.4102 3.46146C10.4102 3.68668 10.4864 3.87546 10.6388 4.02779C10.7912 4.18024 10.9799 4.25646 11.2052 4.25646Z" fill="white"/>
</svg>
